<mxfile host="app.diagrams.net" modified="2024-05-03T01:54:32.213Z" agent="Mozilla/5.0 (Windows NT 10.0; Win64; x64) AppleWebKit/537.36 (KHTML, like Gecko) Chrome/124.0.0.0 Safari/537.36 Edg/124.0.0.0" etag="gKVB4785YWCVXW5KZ1kC" version="24.3.1" type="google">
  <diagram name="PÃ¡gina-1" id="5TRfwjrrkggw9LSMl08y">
    <mxGraphModel grid="1" page="1" gridSize="10" guides="1" tooltips="1" connect="1" arrows="1" fold="1" pageScale="1" pageWidth="827" pageHeight="1169" math="0" shadow="0">
      <root>
        <mxCell id="0" />
        <mxCell id="1" parent="0" />
        <mxCell id="Wtlr0kb17NnHPEUOe5R3-3" value="" style="edgeStyle=orthogonalEdgeStyle;rounded=0;orthogonalLoop=1;jettySize=auto;html=1;" edge="1" parent="1" source="Wtlr0kb17NnHPEUOe5R3-1" target="Wtlr0kb17NnHPEUOe5R3-2">
          <mxGeometry relative="1" as="geometry" />
        </mxCell>
        <mxCell id="Wtlr0kb17NnHPEUOe5R3-1" value="INICIO" style="ellipse;whiteSpace=wrap;html=1;" vertex="1" parent="1">
          <mxGeometry x="360" y="40" width="80" height="80" as="geometry" />
        </mxCell>
        <mxCell id="Wtlr0kb17NnHPEUOe5R3-5" value="" style="edgeStyle=orthogonalEdgeStyle;rounded=0;orthogonalLoop=1;jettySize=auto;html=1;" edge="1" parent="1" source="Wtlr0kb17NnHPEUOe5R3-2" target="Wtlr0kb17NnHPEUOe5R3-4">
          <mxGeometry relative="1" as="geometry" />
        </mxCell>
        <mxCell id="Wtlr0kb17NnHPEUOe5R3-2" value="INPUT&amp;nbsp;&lt;div&gt;doc&lt;/div&gt;" style="shape=parallelogram;perimeter=parallelogramPerimeter;whiteSpace=wrap;html=1;fixedSize=1;" vertex="1" parent="1">
          <mxGeometry x="340" y="150" width="120" height="60" as="geometry" />
        </mxCell>
        <mxCell id="Wtlr0kb17NnHPEUOe5R3-7" value="" style="edgeStyle=orthogonalEdgeStyle;rounded=0;orthogonalLoop=1;jettySize=auto;html=1;" edge="1" parent="1" source="Wtlr0kb17NnHPEUOe5R3-4" target="Wtlr0kb17NnHPEUOe5R3-6">
          <mxGeometry relative="1" as="geometry" />
        </mxCell>
        <mxCell id="Wtlr0kb17NnHPEUOe5R3-4" value="i=0&lt;div&gt;doc_word&lt;/div&gt;" style="whiteSpace=wrap;html=1;" vertex="1" parent="1">
          <mxGeometry x="340" y="240" width="120" height="40" as="geometry" />
        </mxCell>
        <mxCell id="Wtlr0kb17NnHPEUOe5R3-9" value="" style="edgeStyle=orthogonalEdgeStyle;rounded=0;orthogonalLoop=1;jettySize=auto;html=1;" edge="1" parent="1" source="Wtlr0kb17NnHPEUOe5R3-6" target="Wtlr0kb17NnHPEUOe5R3-8">
          <mxGeometry relative="1" as="geometry" />
        </mxCell>
        <mxCell id="Wtlr0kb17NnHPEUOe5R3-13" value="" style="edgeStyle=orthogonalEdgeStyle;rounded=0;orthogonalLoop=1;jettySize=auto;html=1;" edge="1" parent="1" source="Wtlr0kb17NnHPEUOe5R3-6" target="Wtlr0kb17NnHPEUOe5R3-12">
          <mxGeometry relative="1" as="geometry" />
        </mxCell>
        <mxCell id="Wtlr0kb17NnHPEUOe5R3-6" value="i&amp;lt;=doc.size()" style="rhombus;whiteSpace=wrap;html=1;" vertex="1" parent="1">
          <mxGeometry x="350" y="320" width="100" height="80" as="geometry" />
        </mxCell>
        <mxCell id="Wtlr0kb17NnHPEUOe5R3-8" value="FIN" style="ellipse;whiteSpace=wrap;html=1;" vertex="1" parent="1">
          <mxGeometry x="500" y="320" width="80" height="80" as="geometry" />
        </mxCell>
        <mxCell id="Wtlr0kb17NnHPEUOe5R3-10" value="NO" style="text;html=1;align=center;verticalAlign=middle;resizable=0;points=[];autosize=1;strokeColor=none;fillColor=none;" vertex="1" parent="1">
          <mxGeometry x="440" y="320" width="40" height="30" as="geometry" />
        </mxCell>
        <mxCell id="Wtlr0kb17NnHPEUOe5R3-11" value="SI" style="text;html=1;align=center;verticalAlign=middle;resizable=0;points=[];autosize=1;strokeColor=none;fillColor=none;" vertex="1" parent="1">
          <mxGeometry x="410" y="400" width="30" height="30" as="geometry" />
        </mxCell>
        <mxCell id="Wtlr0kb17NnHPEUOe5R3-16" value="" style="edgeStyle=orthogonalEdgeStyle;rounded=0;orthogonalLoop=1;jettySize=auto;html=1;" edge="1" parent="1" source="Wtlr0kb17NnHPEUOe5R3-12" target="Wtlr0kb17NnHPEUOe5R3-15">
          <mxGeometry relative="1" as="geometry" />
        </mxCell>
        <mxCell id="Wtlr0kb17NnHPEUOe5R3-23" value="" style="edgeStyle=orthogonalEdgeStyle;rounded=0;orthogonalLoop=1;jettySize=auto;html=1;" edge="1" parent="1" source="Wtlr0kb17NnHPEUOe5R3-12" target="Wtlr0kb17NnHPEUOe5R3-22">
          <mxGeometry relative="1" as="geometry" />
        </mxCell>
        <mxCell id="Wtlr0kb17NnHPEUOe5R3-12" value="doc_char==&#39; &#39;&amp;nbsp;&lt;div&gt;or i==doc_size1 and&amp;nbsp;&lt;/div&gt;&lt;div&gt;doc != &quot;&quot;&lt;/div&gt;" style="rhombus;whiteSpace=wrap;html=1;" vertex="1" parent="1">
          <mxGeometry x="325" y="450" width="150" height="90" as="geometry" />
        </mxCell>
        <mxCell id="Wtlr0kb17NnHPEUOe5R3-14" value="SI" style="text;html=1;align=center;verticalAlign=middle;resizable=0;points=[];autosize=1;strokeColor=none;fillColor=none;" vertex="1" parent="1">
          <mxGeometry x="310" y="500" width="30" height="30" as="geometry" />
        </mxCell>
        <mxCell id="Wtlr0kb17NnHPEUOe5R3-18" value="" style="edgeStyle=orthogonalEdgeStyle;rounded=0;orthogonalLoop=1;jettySize=auto;html=1;" edge="1" parent="1" source="Wtlr0kb17NnHPEUOe5R3-15" target="Wtlr0kb17NnHPEUOe5R3-17">
          <mxGeometry relative="1" as="geometry" />
        </mxCell>
        <mxCell id="Wtlr0kb17NnHPEUOe5R3-15" value="OUTPUT&lt;div&gt;&#39;[&#39; , doc_word , &#39;]&#39; , endl;&lt;br&gt;&lt;/div&gt;" style="shape=parallelogram;perimeter=parallelogramPerimeter;whiteSpace=wrap;html=1;fixedSize=1;" vertex="1" parent="1">
          <mxGeometry x="120" y="490" width="160" height="60" as="geometry" />
        </mxCell>
        <mxCell id="Wtlr0kb17NnHPEUOe5R3-20" value="" style="edgeStyle=orthogonalEdgeStyle;rounded=0;orthogonalLoop=1;jettySize=auto;html=1;" edge="1" parent="1" source="Wtlr0kb17NnHPEUOe5R3-17" target="Wtlr0kb17NnHPEUOe5R3-19">
          <mxGeometry relative="1" as="geometry" />
        </mxCell>
        <mxCell id="Wtlr0kb17NnHPEUOe5R3-17" value="doc_word=&quot;&quot;" style="whiteSpace=wrap;html=1;" vertex="1" parent="1">
          <mxGeometry x="140" y="405" width="120" height="60" as="geometry" />
        </mxCell>
        <mxCell id="Wtlr0kb17NnHPEUOe5R3-25" style="edgeStyle=orthogonalEdgeStyle;rounded=0;orthogonalLoop=1;jettySize=auto;html=1;entryX=0;entryY=0.5;entryDx=0;entryDy=0;" edge="1" parent="1" source="Wtlr0kb17NnHPEUOe5R3-19" target="Wtlr0kb17NnHPEUOe5R3-6">
          <mxGeometry relative="1" as="geometry" />
        </mxCell>
        <mxCell id="Wtlr0kb17NnHPEUOe5R3-19" value="++i" style="whiteSpace=wrap;html=1;" vertex="1" parent="1">
          <mxGeometry x="140" y="340" width="120" height="40" as="geometry" />
        </mxCell>
        <mxCell id="Wtlr0kb17NnHPEUOe5R3-21" value="NO" style="text;html=1;align=center;verticalAlign=middle;resizable=0;points=[];autosize=1;strokeColor=none;fillColor=none;" vertex="1" parent="1">
          <mxGeometry x="414" y="530" width="40" height="30" as="geometry" />
        </mxCell>
        <mxCell id="Wtlr0kb17NnHPEUOe5R3-24" style="edgeStyle=orthogonalEdgeStyle;rounded=0;orthogonalLoop=1;jettySize=auto;html=1;entryX=0;entryY=0.5;entryDx=0;entryDy=0;" edge="1" parent="1" source="Wtlr0kb17NnHPEUOe5R3-22" target="Wtlr0kb17NnHPEUOe5R3-19">
          <mxGeometry relative="1" as="geometry">
            <Array as="points">
              <mxPoint x="80" y="615" />
              <mxPoint x="80" y="360" />
            </Array>
          </mxGeometry>
        </mxCell>
        <mxCell id="Wtlr0kb17NnHPEUOe5R3-22" value="doc_word = doc_word + doc[i]" style="whiteSpace=wrap;html=1;" vertex="1" parent="1">
          <mxGeometry x="310" y="585" width="180" height="60" as="geometry" />
        </mxCell>
      </root>
    </mxGraphModel>
  </diagram>
</mxfile>
